<svg xmlns="http://www.w3.org/2000/svg" width="390" height="844" viewBox="0 0 390 844">
  <defs>
    <linearGradient id="page-bg" x1="0" y1="0" x2="0" y2="1">
      <stop offset="0" stop-color="#0a0f14"/>
      <stop offset=".52" stop-color="#0d131a"/>
      <stop offset="1" stop-color="#090d12"/>
    </linearGradient>
    <linearGradient id="panel" x1="0" y1="0" x2="0" y2="1">
      <stop offset="0" stop-color="#16202a"/>
      <stop offset="1" stop-color="#121922"/>
    </linearGradient>
    <filter id="shadow" x="-20%" y="-20%" width="140%" height="140%">
      <feDropShadow dx="0" dy="14" stdDeviation="18" flood-color="#000000" flood-opacity=".24"/>
    </filter>
  </defs>
  <rect width="390" height="844" fill="url(#page-bg)"/>
  <g opacity=".22">
    <path d="M0 0V844" stroke="#94a3b3" stroke-width="1" opacity=".11"/><path d="M34 0V844" stroke="#94a3b3" stroke-width="1" opacity=".11"/><path d="M68 0V844" stroke="#94a3b3" stroke-width="1" opacity=".11"/><path d="M102 0V844" stroke="#94a3b3" stroke-width="1" opacity=".11"/><path d="M136 0V844" stroke="#94a3b3" stroke-width="1" opacity=".11"/><path d="M170 0V844" stroke="#94a3b3" stroke-width="1" opacity=".11"/><path d="M204 0V844" stroke="#94a3b3" stroke-width="1" opacity=".11"/><path d="M238 0V844" stroke="#94a3b3" stroke-width="1" opacity=".11"/><path d="M272 0V844" stroke="#94a3b3" stroke-width="1" opacity=".11"/><path d="M306 0V844" stroke="#94a3b3" stroke-width="1" opacity=".11"/><path d="M340 0V844" stroke="#94a3b3" stroke-width="1" opacity=".11"/><path d="M374 0V844" stroke="#94a3b3" stroke-width="1" opacity=".11"/><path d="M0 0H390" stroke="#94a3b3" stroke-width="1" opacity=".08"/><path d="M0 34H390" stroke="#94a3b3" stroke-width="1" opacity=".08"/><path d="M0 68H390" stroke="#94a3b3" stroke-width="1" opacity=".08"/><path d="M0 102H390" stroke="#94a3b3" stroke-width="1" opacity=".08"/><path d="M0 136H390" stroke="#94a3b3" stroke-width="1" opacity=".08"/><path d="M0 170H390" stroke="#94a3b3" stroke-width="1" opacity=".08"/><path d="M0 204H390" stroke="#94a3b3" stroke-width="1" opacity=".08"/><path d="M0 238H390" stroke="#94a3b3" stroke-width="1" opacity=".08"/><path d="M0 272H390" stroke="#94a3b3" stroke-width="1" opacity=".08"/><path d="M0 306H390" stroke="#94a3b3" stroke-width="1" opacity=".08"/><path d="M0 340H390" stroke="#94a3b3" stroke-width="1" opacity=".08"/><path d="M0 374H390" stroke="#94a3b3" stroke-width="1" opacity=".08"/><path d="M0 408H390" stroke="#94a3b3" stroke-width="1" opacity=".08"/><path d="M0 442H390" stroke="#94a3b3" stroke-width="1" opacity=".08"/><path d="M0 476H390" stroke="#94a3b3" stroke-width="1" opacity=".08"/><path d="M0 510H390" stroke="#94a3b3" stroke-width="1" opacity=".08"/><path d="M0 544H390" stroke="#94a3b3" stroke-width="1" opacity=".08"/><path d="M0 578H390" stroke="#94a3b3" stroke-width="1" opacity=".08"/><path d="M0 612H390" stroke="#94a3b3" stroke-width="1" opacity=".08"/><path d="M0 646H390" stroke="#94a3b3" stroke-width="1" opacity=".08"/><path d="M0 680H390" stroke="#94a3b3" stroke-width="1" opacity=".08"/><path d="M0 714H390" stroke="#94a3b3" stroke-width="1" opacity=".08"/><path d="M0 748H390" stroke="#94a3b3" stroke-width="1" opacity=".08"/><path d="M0 782H390" stroke="#94a3b3" stroke-width="1" opacity=".08"/><path d="M0 816H390" stroke="#94a3b3" stroke-width="1" opacity=".08"/>
  </g>
  <rect x="0" y="0" width="390" height="844" fill="url(#page-bg)"/>
  <rect x="16" y="18" width="358" height="64" rx="7" fill="#0c1117" stroke="#202b36"/>
  <text x="34" y="43" fill="#e6edf3" font-family="-apple-system, BlinkMacSystemFont, Inter, Segoe UI, sans-serif" font-size="17" font-weight="850" >HomeDashboard</text>
  <text x="34" y="65" fill="#94a3b3" font-family="-apple-system, BlinkMacSystemFont, Inter, Segoe UI, sans-serif" font-size="12" font-weight="700" >Home NAS</text>
  <circle cx="343" cy="50" r="8" fill="#22c55e"/>
  <rect x="16" y="104" width="358" height="118" rx="7" fill="url(#panel)" stroke="#2a3744" filter="url(#shadow)"/>
  <text x="38" y="137" fill="#94a3b3" font-family="-apple-system, BlinkMacSystemFont, Inter, Segoe UI, sans-serif" font-size="12" font-weight="850" >CPU Load</text>
  <text x="38" y="177" fill="#e6edf3" font-family="-apple-system, BlinkMacSystemFont, Inter, Segoe UI, sans-serif" font-size="34" font-weight="850" >38%</text>
  <rect x="204" y="160" width="128" height="9" rx="4.5" fill="#0b1118" stroke="#202b36"/>
  <rect x="204" y="160" width="49" height="9" rx="4.5" fill="#2dd4bf"/>
  <rect x="16" y="238" width="358" height="118" rx="7" fill="url(#panel)" stroke="#2a3744" filter="url(#shadow)"/>
  <text x="38" y="271" fill="#94a3b3" font-family="-apple-system, BlinkMacSystemFont, Inter, Segoe UI, sans-serif" font-size="12" font-weight="850" >Memory Used</text>
  <text x="38" y="311" fill="#e6edf3" font-family="-apple-system, BlinkMacSystemFont, Inter, Segoe UI, sans-serif" font-size="34" font-weight="850" >62%</text>
  <rect x="204" y="294" width="128" height="9" rx="4.5" fill="#0b1118" stroke="#202b36"/>
  <rect x="204" y="294" width="79" height="9" rx="4.5" fill="#58a6ff"/>
  <rect x="16" y="372" width="358" height="264" rx="7" fill="url(#panel)" stroke="#2a3744" filter="url(#shadow)"/>
  <text x="38" y="407" fill="#e6edf3" font-family="-apple-system, BlinkMacSystemFont, Inter, Segoe UI, sans-serif" font-size="18" font-weight="850" >Filesystems</text>
  <text x="38" y="431" fill="#94a3b3" font-family="-apple-system, BlinkMacSystemFont, Inter, Segoe UI, sans-serif" font-size="12" font-weight="650" >Color-coded usage thresholds</text>
  <text x="38" y="477" fill="#e6edf3" font-family="-apple-system, BlinkMacSystemFont, Inter, Segoe UI, sans-serif" font-size="13" font-weight="850" >/</text>
  <rect x="170" y="460" width="162" height="23" rx="11.5" fill="#17222d" stroke="#22c55e" stroke-opacity=".5"/>
  <rect x="170" y="460" width="120" height="23" rx="11.5" fill="#22c55e"/>
  <text x="251" y="476" fill="#f8fafc" font-family="-apple-system, BlinkMacSystemFont, Inter, Segoe UI, sans-serif" font-size="12" font-weight="800" text-anchor="middle">74%</text>
  <text x="38" y="541" fill="#e6edf3" font-family="-apple-system, BlinkMacSystemFont, Inter, Segoe UI, sans-serif" font-size="13" font-weight="850" >/mnt/media</text>
  <rect x="170" y="524" width="162" height="23" rx="11.5" fill="#17222d" stroke="#facc15" stroke-opacity=".5"/>
  <rect x="170" y="524" width="131" height="23" rx="11.5" fill="#facc15"/>
  <text x="251" y="540" fill="#f8fafc" font-family="-apple-system, BlinkMacSystemFont, Inter, Segoe UI, sans-serif" font-size="12" font-weight="800" text-anchor="middle">81%</text>
  <text x="38" y="605" fill="#e6edf3" font-family="-apple-system, BlinkMacSystemFont, Inter, Segoe UI, sans-serif" font-size="13" font-weight="850" >/mnt/backup</text>
  <rect x="170" y="588" width="162" height="23" rx="11.5" fill="#17222d" stroke="#f43f5e" stroke-opacity=".5"/>
  <rect x="170" y="588" width="149" height="23" rx="11.5" fill="#f43f5e"/>
  <text x="251" y="604" fill="#f8fafc" font-family="-apple-system, BlinkMacSystemFont, Inter, Segoe UI, sans-serif" font-size="12" font-weight="800" text-anchor="middle">92%</text>
  <rect x="16" y="654" width="358" height="138" rx="7" fill="url(#panel)" stroke="#2a3744" filter="url(#shadow)"/>
  <text x="38" y="689" fill="#e6edf3" font-family="-apple-system, BlinkMacSystemFont, Inter, Segoe UI, sans-serif" font-size="18" font-weight="850" >Processes</text>
  <text x="38" y="727" fill="#e6edf3" font-family="-apple-system, BlinkMacSystemFont, Inter, Segoe UI, sans-serif" font-size="13" font-weight="750" >docker-proxy</text>
  <text x="288" y="727" fill="#2dd4bf" font-family="-apple-system, BlinkMacSystemFont, Inter, Segoe UI, sans-serif" font-size="13" font-weight="850" >12.8%</text>
  <text x="38" y="763" fill="#e6edf3" font-family="-apple-system, BlinkMacSystemFont, Inter, Segoe UI, sans-serif" font-size="13" font-weight="750" >node dist/server.js</text>
  <text x="288" y="763" fill="#2dd4bf" font-family="-apple-system, BlinkMacSystemFont, Inter, Segoe UI, sans-serif" font-size="13" font-weight="850" >8.4%</text>
</svg>