<svg xmlns="http://www.w3.org/2000/svg" width="1440" height="980" viewBox="0 0 1440 980">
  <defs>
    <linearGradient id="page-bg" x1="0" y1="0" x2="0" y2="1">
      <stop offset="0" stop-color="#0a0f14"/>
      <stop offset=".52" stop-color="#0d131a"/>
      <stop offset="1" stop-color="#090d12"/>
    </linearGradient>
    <linearGradient id="panel" x1="0" y1="0" x2="0" y2="1">
      <stop offset="0" stop-color="#16202a"/>
      <stop offset="1" stop-color="#121922"/>
    </linearGradient>
    <filter id="shadow" x="-20%" y="-20%" width="140%" height="140%">
      <feDropShadow dx="0" dy="14" stdDeviation="18" flood-color="#000000" flood-opacity=".24"/>
    </filter>
  </defs>
  <rect width="1440" height="980" fill="url(#page-bg)"/>
  <g opacity=".22">
    <path d="M0 0V980" stroke="#94a3b3" stroke-width="1" opacity=".11"/><path d="M34 0V980" stroke="#94a3b3" stroke-width="1" opacity=".11"/><path d="M68 0V980" stroke="#94a3b3" stroke-width="1" opacity=".11"/><path d="M102 0V980" stroke="#94a3b3" stroke-width="1" opacity=".11"/><path d="M136 0V980" stroke="#94a3b3" stroke-width="1" opacity=".11"/><path d="M170 0V980" stroke="#94a3b3" stroke-width="1" opacity=".11"/><path d="M204 0V980" stroke="#94a3b3" stroke-width="1" opacity=".11"/><path d="M238 0V980" stroke="#94a3b3" stroke-width="1" opacity=".11"/><path d="M272 0V980" stroke="#94a3b3" stroke-width="1" opacity=".11"/><path d="M306 0V980" stroke="#94a3b3" stroke-width="1" opacity=".11"/><path d="M340 0V980" stroke="#94a3b3" stroke-width="1" opacity=".11"/><path d="M374 0V980" stroke="#94a3b3" stroke-width="1" opacity=".11"/><path d="M408 0V980" stroke="#94a3b3" stroke-width="1" opacity=".11"/><path d="M442 0V980" stroke="#94a3b3" stroke-width="1" opacity=".11"/><path d="M476 0V980" stroke="#94a3b3" stroke-width="1" opacity=".11"/><path d="M510 0V980" stroke="#94a3b3" stroke-width="1" opacity=".11"/><path d="M544 0V980" stroke="#94a3b3" stroke-width="1" opacity=".11"/><path d="M578 0V980" stroke="#94a3b3" stroke-width="1" opacity=".11"/><path d="M612 0V980" stroke="#94a3b3" stroke-width="1" opacity=".11"/><path d="M646 0V980" stroke="#94a3b3" stroke-width="1" opacity=".11"/><path d="M680 0V980" stroke="#94a3b3" stroke-width="1" opacity=".11"/><path d="M714 0V980" stroke="#94a3b3" stroke-width="1" opacity=".11"/><path d="M748 0V980" stroke="#94a3b3" stroke-width="1" opacity=".11"/><path d="M782 0V980" stroke="#94a3b3" stroke-width="1" opacity=".11"/><path d="M816 0V980" stroke="#94a3b3" stroke-width="1" opacity=".11"/><path d="M850 0V980" stroke="#94a3b3" stroke-width="1" opacity=".11"/><path d="M884 0V980" stroke="#94a3b3" stroke-width="1" opacity=".11"/><path d="M918 0V980" stroke="#94a3b3" stroke-width="1" opacity=".11"/><path d="M952 0V980" stroke="#94a3b3" stroke-width="1" opacity=".11"/><path d="M986 0V980" stroke="#94a3b3" stroke-width="1" opacity=".11"/><path d="M1020 0V980" stroke="#94a3b3" stroke-width="1" opacity=".11"/><path d="M1054 0V980" stroke="#94a3b3" stroke-width="1" opacity=".11"/><path d="M1088 0V980" stroke="#94a3b3" stroke-width="1" opacity=".11"/><path d="M1122 0V980" stroke="#94a3b3" stroke-width="1" opacity=".11"/><path d="M1156 0V980" stroke="#94a3b3" stroke-width="1" opacity=".11"/><path d="M1190 0V980" stroke="#94a3b3" stroke-width="1" opacity=".11"/><path d="M1224 0V980" stroke="#94a3b3" stroke-width="1" opacity=".11"/><path d="M1258 0V980" stroke="#94a3b3" stroke-width="1" opacity=".11"/><path d="M1292 0V980" stroke="#94a3b3" stroke-width="1" opacity=".11"/><path d="M1326 0V980" stroke="#94a3b3" stroke-width="1" opacity=".11"/><path d="M1360 0V980" stroke="#94a3b3" stroke-width="1" opacity=".11"/><path d="M1394 0V980" stroke="#94a3b3" stroke-width="1" opacity=".11"/><path d="M1428 0V980" stroke="#94a3b3" stroke-width="1" opacity=".11"/><path d="M0 0H1440" stroke="#94a3b3" stroke-width="1" opacity=".08"/><path d="M0 34H1440" stroke="#94a3b3" stroke-width="1" opacity=".08"/><path d="M0 68H1440" stroke="#94a3b3" stroke-width="1" opacity=".08"/><path d="M0 102H1440" stroke="#94a3b3" stroke-width="1" opacity=".08"/><path d="M0 136H1440" stroke="#94a3b3" stroke-width="1" opacity=".08"/><path d="M0 170H1440" stroke="#94a3b3" stroke-width="1" opacity=".08"/><path d="M0 204H1440" stroke="#94a3b3" stroke-width="1" opacity=".08"/><path d="M0 238H1440" stroke="#94a3b3" stroke-width="1" opacity=".08"/><path d="M0 272H1440" stroke="#94a3b3" stroke-width="1" opacity=".08"/><path d="M0 306H1440" stroke="#94a3b3" stroke-width="1" opacity=".08"/><path d="M0 340H1440" stroke="#94a3b3" stroke-width="1" opacity=".08"/><path d="M0 374H1440" stroke="#94a3b3" stroke-width="1" opacity=".08"/><path d="M0 408H1440" stroke="#94a3b3" stroke-width="1" opacity=".08"/><path d="M0 442H1440" stroke="#94a3b3" stroke-width="1" opacity=".08"/><path d="M0 476H1440" stroke="#94a3b3" stroke-width="1" opacity=".08"/><path d="M0 510H1440" stroke="#94a3b3" stroke-width="1" opacity=".08"/><path d="M0 544H1440" stroke="#94a3b3" stroke-width="1" opacity=".08"/><path d="M0 578H1440" stroke="#94a3b3" stroke-width="1" opacity=".08"/><path d="M0 612H1440" stroke="#94a3b3" stroke-width="1" opacity=".08"/><path d="M0 646H1440" stroke="#94a3b3" stroke-width="1" opacity=".08"/><path d="M0 680H1440" stroke="#94a3b3" stroke-width="1" opacity=".08"/><path d="M0 714H1440" stroke="#94a3b3" stroke-width="1" opacity=".08"/><path d="M0 748H1440" stroke="#94a3b3" stroke-width="1" opacity=".08"/><path d="M0 782H1440" stroke="#94a3b3" stroke-width="1" opacity=".08"/><path d="M0 816H1440" stroke="#94a3b3" stroke-width="1" opacity=".08"/><path d="M0 850H1440" stroke="#94a3b3" stroke-width="1" opacity=".08"/><path d="M0 884H1440" stroke="#94a3b3" stroke-width="1" opacity=".08"/><path d="M0 918H1440" stroke="#94a3b3" stroke-width="1" opacity=".08"/><path d="M0 952H1440" stroke="#94a3b3" stroke-width="1" opacity=".08"/>
  </g>
  <rect x="0" y="0" width="282" height="980" fill="#0c1117" stroke="#202b36"/>
  <g transform="translate(24 31)">
    <rect x="0" y="0" width="34" height="34" rx="8" fill="#2dd4bf" fill-opacity=".14" stroke="#2dd4bf" stroke-opacity=".35"/>
    <text x="47" y="15" fill="#e6edf3" font-family="-apple-system, BlinkMacSystemFont, Inter, Segoe UI, sans-serif" font-size="16" font-weight="850" >HomeDashboard</text>
    <text x="47" y="33" fill="#94a3b3" font-family="-apple-system, BlinkMacSystemFont, Inter, Segoe UI, sans-serif" font-size="12" font-weight="650" >Infrastructure Control</text>
  </g>
  <rect x="24" y="88" width="234" height="36" rx="7" fill="#121922" stroke="#2a3744"/>
  <text x="54" y="111" fill="#e6edf3" font-family="-apple-system, BlinkMacSystemFont, Inter, Segoe UI, sans-serif" font-size="13" font-weight="750" >Neo</text>
  <rect x="24" y="140" width="234" height="40" rx="7" fill="#2dd4bf" stroke="#2dd4bf" stroke-opacity=".7"/>
  <text x="91" y="165" fill="#06201c" font-family="-apple-system, BlinkMacSystemFont, Inter, Segoe UI, sans-serif" font-size="14" font-weight="850" >New Server</text>
  <rect x="24" y="202" width="234" height="54" rx="7" fill="#121922" stroke="#202b36" stroke-opacity="1"/>
    <circle cx="42" cy="229" r="4.5" fill="#22c55e"/>
    <text x="60" y="225" fill="#e6edf3" font-family="-apple-system, BlinkMacSystemFont, Inter, Segoe UI, sans-serif" font-size="13" font-weight="800" >All Servers</text>
    <text x="60" y="243" fill="#94a3b3" font-family="-apple-system, BlinkMacSystemFont, Inter, Segoe UI, sans-serif" font-size="11" font-weight="650" >Fleet overview</text>
    <rect x="217" y="218" width="27" height="22" rx="11" fill="#1b2631" stroke="#2a3744"/>
    <text x="230.5" y="233" fill="#94a3b3" font-family="-apple-system, BlinkMacSystemFont, Inter, Segoe UI, sans-serif" font-size="10" font-weight="850" text-anchor="middle">3</text><rect x="24" y="266" width="234" height="54" rx="7" fill="#121922" stroke="#202b36" stroke-opacity="1"/>
    <circle cx="42" cy="293" r="4.5" fill="#22c55e"/>
    <text x="60" y="289" fill="#e6edf3" font-family="-apple-system, BlinkMacSystemFont, Inter, Segoe UI, sans-serif" font-size="13" font-weight="800" >All Containers</text>
    <text x="60" y="307" fill="#94a3b3" font-family="-apple-system, BlinkMacSystemFont, Inter, Segoe UI, sans-serif" font-size="11" font-weight="650" >Container fleet</text>
    <rect x="217" y="282" width="27" height="22" rx="11" fill="#1b2631" stroke="#2a3744"/>
    <text x="230.5" y="297" fill="#94a3b3" font-family="-apple-system, BlinkMacSystemFont, Inter, Segoe UI, sans-serif" font-size="10" font-weight="850" text-anchor="middle">11</text><rect x="24" y="330" width="234" height="54" rx="7" fill="#13262a" stroke="#2dd4bf" stroke-opacity=".7"/>
    <circle cx="42" cy="357" r="4.5" fill="#22c55e"/>
    <text x="60" y="353" fill="#e6edf3" font-family="-apple-system, BlinkMacSystemFont, Inter, Segoe UI, sans-serif" font-size="13" font-weight="800" >Home NAS</text>
    <text x="60" y="371" fill="#94a3b3" font-family="-apple-system, BlinkMacSystemFont, Inter, Segoe UI, sans-serif" font-size="11" font-weight="650" >user@192.0.2.10:22</text>
    <rect x="217" y="346" width="27" height="22" rx="11" fill="#1b2631" stroke="#2a3744"/>
    <text x="230.5" y="361" fill="#94a3b3" font-family="-apple-system, BlinkMacSystemFont, Inter, Segoe UI, sans-serif" font-size="10" font-weight="850" text-anchor="middle">key</text><rect x="24" y="394" width="234" height="54" rx="7" fill="#121922" stroke="#202b36" stroke-opacity="1"/>
    <circle cx="42" cy="421" r="4.5" fill="#22c55e"/>
    <text x="60" y="417" fill="#e6edf3" font-family="-apple-system, BlinkMacSystemFont, Inter, Segoe UI, sans-serif" font-size="13" font-weight="800" >Media Box</text>
    <text x="60" y="435" fill="#94a3b3" font-family="-apple-system, BlinkMacSystemFont, Inter, Segoe UI, sans-serif" font-size="11" font-weight="650" >user@192.0.2.20:22</text>
    <rect x="217" y="410" width="27" height="22" rx="11" fill="#1b2631" stroke="#2a3744"/>
    <text x="230.5" y="425" fill="#94a3b3" font-family="-apple-system, BlinkMacSystemFont, Inter, Segoe UI, sans-serif" font-size="10" font-weight="850" text-anchor="middle">key</text><rect x="24" y="458" width="234" height="54" rx="7" fill="#121922" stroke="#202b36" stroke-opacity="1"/>
    <circle cx="42" cy="485" r="4.5" fill="#facc15"/>
    <text x="60" y="481" fill="#e6edf3" font-family="-apple-system, BlinkMacSystemFont, Inter, Segoe UI, sans-serif" font-size="13" font-weight="800" >Edge Pi</text>
    <text x="60" y="499" fill="#94a3b3" font-family="-apple-system, BlinkMacSystemFont, Inter, Segoe UI, sans-serif" font-size="11" font-weight="650" >user@192.0.2.30:22</text>
    <rect x="217" y="474" width="27" height="22" rx="11" fill="#1b2631" stroke="#2a3744"/>
    <text x="230.5" y="489" fill="#94a3b3" font-family="-apple-system, BlinkMacSystemFont, Inter, Segoe UI, sans-serif" font-size="10" font-weight="850" text-anchor="middle">pwd</text><rect x="306" y="24" width="1102" height="122" rx="7" fill="url(#panel)" stroke="#2a3744" filter="url(#shadow)"/>
  <circle cx="357" cy="85" r="23" fill="#2dd4bf" fill-opacity=".16" stroke="#2dd4bf" stroke-opacity=".4"/>
  <circle cx="386" cy="68" r="9" fill="#22c55e"/>
  <text x="416" y="66" fill="#94a3b3" font-family="-apple-system, BlinkMacSystemFont, Inter, Segoe UI, sans-serif" font-size="12" font-weight="800" >Active server</text>
  <text x="416" y="95" fill="#e6edf3" font-family="-apple-system, BlinkMacSystemFont, Inter, Segoe UI, sans-serif" font-size="30" font-weight="850" >Home NAS</text>
  <text x="416" y="119" fill="#94a3b3" font-family="-apple-system, BlinkMacSystemFont, Inter, Segoe UI, sans-serif" font-size="13" font-weight="650" >user@192.0.2.10:22</text>
  <rect x="791" y="58" width="112" height="54" rx="7" fill="#121922" stroke="#202b36"/>
  <text x="805" y="79" fill="#94a3b3" font-family="-apple-system, BlinkMacSystemFont, Inter, Segoe UI, sans-serif" font-size="10" font-weight="850" >TEMP</text>
  <text x="805" y="98" fill="#f43f5e" font-family="-apple-system, BlinkMacSystemFont, Inter, Segoe UI, sans-serif" font-size="16" font-weight="850" >42°C</text>
  <rect x="921" y="58" width="112" height="54" rx="7" fill="#121922" stroke="#202b36"/>
  <text x="935" y="79" fill="#94a3b3" font-family="-apple-system, BlinkMacSystemFont, Inter, Segoe UI, sans-serif" font-size="10" font-weight="850" >DISK I/O</text>
  <text x="935" y="98" fill="#facc15" font-family="-apple-system, BlinkMacSystemFont, Inter, Segoe UI, sans-serif" font-size="16" font-weight="850" >12.4 MB/s</text>
  <rect x="1082" y="58" width="112" height="54" rx="7" fill="#121922" stroke="#202b36"/>
  <text x="1096" y="79" fill="#94a3b3" font-family="-apple-system, BlinkMacSystemFont, Inter, Segoe UI, sans-serif" font-size="10" font-weight="850" >NET</text>
  <text x="1096" y="98" fill="#a78bfa" font-family="-apple-system, BlinkMacSystemFont, Inter, Segoe UI, sans-serif" font-size="16" font-weight="850" >8.8 MB/s</text>
  <rect x="1239" y="58" width="72" height="36" rx="7" fill="#16202a" stroke="#2a3744"/>
  <text x="1275" y="81" fill="#e6edf3" font-family="-apple-system, BlinkMacSystemFont, Inter, Segoe UI, sans-serif" font-size="13" font-weight="800" text-anchor="middle">Edit</text>
  <rect x="1321" y="58" width="62" height="36" rx="7" fill="#f43f5e" fill-opacity=".13" stroke="#f43f5e" stroke-opacity=".5"/>
  <text x="1352" y="81" fill="#f43f5e" font-family="-apple-system, BlinkMacSystemFont, Inter, Segoe UI, sans-serif" font-size="13" font-weight="800" text-anchor="middle">Delete</text><g><rect x="333" y="176" width="112" height="38" rx="7" fill="#16202a" fill-opacity=".82" stroke="#2a3744"/>
    <text x="389" y="200" fill="#e6edf3" font-family="-apple-system, BlinkMacSystemFont, Inter, Segoe UI, sans-serif" font-size="13" font-weight="850" text-anchor="middle">Overview</text><rect x="453" y="176" width="88" height="38" rx="7" fill="#16202a" fill-opacity=".82" stroke="#2a3744"/>
    <text x="497" y="200" fill="#e6edf3" font-family="-apple-system, BlinkMacSystemFont, Inter, Segoe UI, sans-serif" font-size="13" font-weight="850" text-anchor="middle">Files</text><rect x="549" y="176" width="112" height="38" rx="7" fill="#16202a" fill-opacity=".82" stroke="#2a3744"/>
    <text x="605" y="200" fill="#e6edf3" font-family="-apple-system, BlinkMacSystemFont, Inter, Segoe UI, sans-serif" font-size="13" font-weight="850" text-anchor="middle">Terminal</text><rect x="669" y="176" width="72" height="38" rx="7" fill="#16202a" fill-opacity=".82" stroke="#2a3744"/>
    <text x="705" y="200" fill="#e6edf3" font-family="-apple-system, BlinkMacSystemFont, Inter, Segoe UI, sans-serif" font-size="13" font-weight="850" text-anchor="middle">VNC</text><rect x="749" y="176" width="112" height="38" rx="7" fill="#2dd4bf" fill-opacity="1" stroke="#2dd4bf"/>
    <text x="805" y="200" fill="#06201c" font-family="-apple-system, BlinkMacSystemFont, Inter, Segoe UI, sans-serif" font-size="13" font-weight="850" text-anchor="middle">Services</text><rect x="869" y="176" width="128" height="38" rx="7" fill="#16202a" fill-opacity=".82" stroke="#2a3744"/>
    <text x="933" y="200" fill="#e6edf3" font-family="-apple-system, BlinkMacSystemFont, Inter, Segoe UI, sans-serif" font-size="13" font-weight="850" text-anchor="middle">Containers</text></g>
  <rect x="330" y="248" width="1010" height="626" rx="7" fill="url(#panel)" stroke="#2a3744" filter="url(#shadow)"/>
  <text x="356" y="286" fill="#e6edf3" font-family="-apple-system, BlinkMacSystemFont, Inter, Segoe UI, sans-serif" font-size="20" font-weight="850" >Services</text>
  <text x="356" y="310" fill="#94a3b3" font-family="-apple-system, BlinkMacSystemFont, Inter, Segoe UI, sans-serif" font-size="12" font-weight="700" >5 of 5 user services</text>
  <rect x="865" y="270" width="168" height="26" rx="13" fill="#94a3b3" fill-opacity=".14" stroke="#94a3b3" stroke-opacity=".48"/>
  <text x="949" y="287" fill="#94a3b3" font-family="-apple-system, BlinkMacSystemFont, Inter, Segoe UI, sans-serif" font-size="11" font-weight="800" text-anchor="middle">Show system services</text>
  <circle cx="1054" cy="283" r="16" fill="#16202a" stroke="#2a3744"/>
  <text x="1054" y="288" fill="#e6edf3" font-family="-apple-system, BlinkMacSystemFont, Inter, Segoe UI, sans-serif" font-size="16" font-weight="850" text-anchor="middle">?</text>
  <rect x="1084" y="270" width="146" height="28" rx="7" fill="#121922" stroke="#2a3744"/>
  <text x="1104" y="289" fill="#94a3b3" font-family="-apple-system, BlinkMacSystemFont, Inter, Segoe UI, sans-serif" font-size="12" font-weight="650" >Filter services</text>
  <rect x="1244" y="270" width="82" height="26" rx="13" fill="#94a3b3" fill-opacity=".14" stroke="#94a3b3" stroke-opacity=".48"/>
  <text x="1285" y="287" fill="#94a3b3" font-family="-apple-system, BlinkMacSystemFont, Inter, Segoe UI, sans-serif" font-size="11" font-weight="800" text-anchor="middle">Refresh</text>
  <rect x="356" y="348" width="954" height="46" rx="7" fill="#121922" stroke="#202b36"/>
  <text x="372" y="377" fill="#e6edf3" font-family="-apple-system, BlinkMacSystemFont, Inter, Segoe UI, sans-serif" font-size="13" font-weight="850" >home-dashboard.service</text>
  <rect x="676" y="358" width="58" height="26" rx="13" fill="#94a3b3" fill-opacity=".14" stroke="#94a3b3" stroke-opacity=".48"/>
  <text x="705" y="375" fill="#94a3b3" font-family="-apple-system, BlinkMacSystemFont, Inter, Segoe UI, sans-serif" font-size="11" font-weight="800" text-anchor="middle">user</text>
  <rect x="756" y="358" width="82" height="26" rx="13" fill="#22c55e" fill-opacity=".14" stroke="#22c55e" stroke-opacity=".48"/>
  <text x="797" y="375" fill="#22c55e" font-family="-apple-system, BlinkMacSystemFont, Inter, Segoe UI, sans-serif" font-size="11" font-weight="800" text-anchor="middle">active</text>
  <rect x="856" y="358" width="92" height="26" rx="13" fill="#22c55e" fill-opacity=".14" stroke="#22c55e" stroke-opacity=".48"/>
  <text x="902" y="375" fill="#22c55e" font-family="-apple-system, BlinkMacSystemFont, Inter, Segoe UI, sans-serif" font-size="11" font-weight="800" text-anchor="middle">enabled</text>
  <text x="978" y="377" fill="#94a3b3" font-family="-apple-system, BlinkMacSystemFont, Inter, Segoe UI, sans-serif" font-size="12" font-weight="650" >Dashboard backend</text>
  <rect x="1186" y="358" width="72" height="26" rx="13" fill="#f43f5e" fill-opacity=".14" stroke="#f43f5e" stroke-opacity=".48"/>
  <text x="1222" y="375" fill="#f43f5e" font-family="-apple-system, BlinkMacSystemFont, Inter, Segoe UI, sans-serif" font-size="11" font-weight="800" text-anchor="middle">Stop</text>
  <rect x="356" y="406" width="954" height="46" rx="7" fill="#121922" stroke="#202b36"/>
  <text x="372" y="435" fill="#e6edf3" font-family="-apple-system, BlinkMacSystemFont, Inter, Segoe UI, sans-serif" font-size="13" font-weight="850" >podman.socket</text>
  <rect x="676" y="416" width="58" height="26" rx="13" fill="#94a3b3" fill-opacity=".14" stroke="#94a3b3" stroke-opacity=".48"/>
  <text x="705" y="433" fill="#94a3b3" font-family="-apple-system, BlinkMacSystemFont, Inter, Segoe UI, sans-serif" font-size="11" font-weight="800" text-anchor="middle">user</text>
  <rect x="756" y="416" width="82" height="26" rx="13" fill="#22c55e" fill-opacity=".14" stroke="#22c55e" stroke-opacity=".48"/>
  <text x="797" y="433" fill="#22c55e" font-family="-apple-system, BlinkMacSystemFont, Inter, Segoe UI, sans-serif" font-size="11" font-weight="800" text-anchor="middle">active</text>
  <rect x="856" y="416" width="92" height="26" rx="13" fill="#22c55e" fill-opacity=".14" stroke="#22c55e" stroke-opacity=".48"/>
  <text x="902" y="433" fill="#22c55e" font-family="-apple-system, BlinkMacSystemFont, Inter, Segoe UI, sans-serif" font-size="11" font-weight="800" text-anchor="middle">enabled</text>
  <text x="978" y="435" fill="#94a3b3" font-family="-apple-system, BlinkMacSystemFont, Inter, Segoe UI, sans-serif" font-size="12" font-weight="650" >Container API socket</text>
  <rect x="1186" y="416" width="72" height="26" rx="13" fill="#f43f5e" fill-opacity=".14" stroke="#f43f5e" stroke-opacity=".48"/>
  <text x="1222" y="433" fill="#f43f5e" font-family="-apple-system, BlinkMacSystemFont, Inter, Segoe UI, sans-serif" font-size="11" font-weight="800" text-anchor="middle">Stop</text>
  <rect x="356" y="464" width="954" height="46" rx="7" fill="#121922" stroke="#202b36"/>
  <text x="372" y="493" fill="#e6edf3" font-family="-apple-system, BlinkMacSystemFont, Inter, Segoe UI, sans-serif" font-size="13" font-weight="850" >syncthing.service</text>
  <rect x="676" y="474" width="58" height="26" rx="13" fill="#94a3b3" fill-opacity=".14" stroke="#94a3b3" stroke-opacity=".48"/>
  <text x="705" y="491" fill="#94a3b3" font-family="-apple-system, BlinkMacSystemFont, Inter, Segoe UI, sans-serif" font-size="11" font-weight="800" text-anchor="middle">user</text>
  <rect x="756" y="474" width="82" height="26" rx="13" fill="#22c55e" fill-opacity=".14" stroke="#22c55e" stroke-opacity=".48"/>
  <text x="797" y="491" fill="#22c55e" font-family="-apple-system, BlinkMacSystemFont, Inter, Segoe UI, sans-serif" font-size="11" font-weight="800" text-anchor="middle">active</text>
  <rect x="856" y="474" width="92" height="26" rx="13" fill="#22c55e" fill-opacity=".14" stroke="#22c55e" stroke-opacity=".48"/>
  <text x="902" y="491" fill="#22c55e" font-family="-apple-system, BlinkMacSystemFont, Inter, Segoe UI, sans-serif" font-size="11" font-weight="800" text-anchor="middle">enabled</text>
  <text x="978" y="493" fill="#94a3b3" font-family="-apple-system, BlinkMacSystemFont, Inter, Segoe UI, sans-serif" font-size="12" font-weight="650" >File sync service</text>
  <rect x="1186" y="474" width="72" height="26" rx="13" fill="#f43f5e" fill-opacity=".14" stroke="#f43f5e" stroke-opacity=".48"/>
  <text x="1222" y="491" fill="#f43f5e" font-family="-apple-system, BlinkMacSystemFont, Inter, Segoe UI, sans-serif" font-size="11" font-weight="800" text-anchor="middle">Stop</text>
  <rect x="356" y="522" width="954" height="46" rx="7" fill="#121922" stroke="#202b36"/>
  <text x="372" y="551" fill="#e6edf3" font-family="-apple-system, BlinkMacSystemFont, Inter, Segoe UI, sans-serif" font-size="13" font-weight="850" >media-indexer.service</text>
  <rect x="676" y="532" width="58" height="26" rx="13" fill="#94a3b3" fill-opacity=".14" stroke="#94a3b3" stroke-opacity=".48"/>
  <text x="705" y="549" fill="#94a3b3" font-family="-apple-system, BlinkMacSystemFont, Inter, Segoe UI, sans-serif" font-size="11" font-weight="800" text-anchor="middle">user</text>
  <rect x="756" y="532" width="82" height="26" rx="13" fill="#facc15" fill-opacity=".14" stroke="#facc15" stroke-opacity=".48"/>
  <text x="797" y="549" fill="#facc15" font-family="-apple-system, BlinkMacSystemFont, Inter, Segoe UI, sans-serif" font-size="11" font-weight="800" text-anchor="middle">inactive</text>
  <rect x="856" y="532" width="92" height="26" rx="13" fill="#f43f5e" fill-opacity=".14" stroke="#f43f5e" stroke-opacity=".48"/>
  <text x="902" y="549" fill="#f43f5e" font-family="-apple-system, BlinkMacSystemFont, Inter, Segoe UI, sans-serif" font-size="11" font-weight="800" text-anchor="middle">disabled</text>
  <text x="978" y="551" fill="#94a3b3" font-family="-apple-system, BlinkMacSystemFont, Inter, Segoe UI, sans-serif" font-size="12" font-weight="650" >Media library indexer</text>
  <rect x="1186" y="532" width="72" height="26" rx="13" fill="#22c55e" fill-opacity=".14" stroke="#22c55e" stroke-opacity=".48"/>
  <text x="1222" y="549" fill="#22c55e" font-family="-apple-system, BlinkMacSystemFont, Inter, Segoe UI, sans-serif" font-size="11" font-weight="800" text-anchor="middle">Start</text>
  <rect x="356" y="580" width="954" height="46" rx="7" fill="#121922" stroke="#202b36"/>
  <text x="372" y="609" fill="#e6edf3" font-family="-apple-system, BlinkMacSystemFont, Inter, Segoe UI, sans-serif" font-size="13" font-weight="850" >backup-timer.service</text>
  <rect x="676" y="590" width="58" height="26" rx="13" fill="#94a3b3" fill-opacity=".14" stroke="#94a3b3" stroke-opacity=".48"/>
  <text x="705" y="607" fill="#94a3b3" font-family="-apple-system, BlinkMacSystemFont, Inter, Segoe UI, sans-serif" font-size="11" font-weight="800" text-anchor="middle">user</text>
  <rect x="756" y="590" width="82" height="26" rx="13" fill="#f43f5e" fill-opacity=".14" stroke="#f43f5e" stroke-opacity=".48"/>
  <text x="797" y="607" fill="#f43f5e" font-family="-apple-system, BlinkMacSystemFont, Inter, Segoe UI, sans-serif" font-size="11" font-weight="800" text-anchor="middle">failed</text>
  <rect x="856" y="590" width="92" height="26" rx="13" fill="#22c55e" fill-opacity=".14" stroke="#22c55e" stroke-opacity=".48"/>
  <text x="902" y="607" fill="#22c55e" font-family="-apple-system, BlinkMacSystemFont, Inter, Segoe UI, sans-serif" font-size="11" font-weight="800" text-anchor="middle">enabled</text>
  <text x="978" y="609" fill="#94a3b3" font-family="-apple-system, BlinkMacSystemFont, Inter, Segoe UI, sans-serif" font-size="12" font-weight="650" >Nightly backup job</text>
  <rect x="1186" y="590" width="72" height="26" rx="13" fill="#22c55e" fill-opacity=".14" stroke="#22c55e" stroke-opacity=".48"/>
  <text x="1222" y="607" fill="#22c55e" font-family="-apple-system, BlinkMacSystemFont, Inter, Segoe UI, sans-serif" font-size="11" font-weight="800" text-anchor="middle">Start</text>
  <rect x="356" y="684" width="616" height="126" rx="7" fill="#0d1319" stroke="#202b36"/>
  <text x="382" y="716" fill="#e6edf3" font-family="-apple-system, BlinkMacSystemFont, Inter, Segoe UI, sans-serif" font-size="15" font-weight="850" >System service control is intentionally explicit.</text>
  <text x="382" y="745" fill="#94a3b3" font-family="-apple-system, BlinkMacSystemFont, Inter, Segoe UI, sans-serif" font-size="12" font-weight="650" >The help action shows a generic sudoers snippet for limited start/stop/restart actions.</text>
  <text x="382" y="776" fill="#94a3b3" font-family="-apple-system, BlinkMacSystemFont, Inter, Segoe UI, sans-serif" font-size="12" font-weight="650" >By default, only user services are listed.</text>
</svg>