<svg xmlns="http://www.w3.org/2000/svg" viewBox="0 0 256 256" role="img" aria-labelledby="title">
  <title>HomeDashboard</title>
  <defs>
    <linearGradient id="bg" x1="48" x2="208" y1="36" y2="220" gradientUnits="userSpaceOnUse">
      <stop offset="0" stop-color="#38f5d1"/>
      <stop offset="0.52" stop-color="#58a6ff"/>
      <stop offset="1" stop-color="#a78bfa"/>
    </linearGradient>
    <linearGradient id="panel" x1="76" x2="180" y1="78" y2="190" gradientUnits="userSpaceOnUse">
      <stop offset="0" stop-color="#142131"/>
      <stop offset="1" stop-color="#090d12"/>
    </linearGradient>
  </defs>
  <rect width="256" height="256" rx="56" fill="#090d12"/>
  <rect x="20" y="20" width="216" height="216" rx="46" fill="url(#bg)" opacity="0.96"/>
  <rect x="46" y="54" width="164" height="148" rx="22" fill="url(#panel)"/>
  <path fill="#ecfeff" d="M70 92c0-7.7 6.3-14 14-14h88c7.7 0 14 6.3 14 14v6H70v-6Zm0 24h116v46c0 7.7-6.3 14-14 14H84c-7.7 0-14-6.3-14-14v-46Z"/>
  <rect x="92" y="135" width="18" height="18" rx="5" fill="#2dd4bf"/>
  <rect x="119" y="135" width="18" height="18" rx="5" fill="#58a6ff"/>
  <rect x="146" y="135" width="18" height="18" rx="5" fill="#a78bfa"/>
  <path fill="#090d12" d="M87 94a8 8 0 1 0 0-16 8 8 0 0 0 0 16Zm24 0a8 8 0 1 0 0-16 8 8 0 0 0 0 16Z"/>
</svg>
